<svg width="80" height="71" viewBox="0 0 80 71" fill="none" xmlns="http://www.w3.org/2000/svg">
<path d="M0 8.875C0 3.97988 3.98611 0 8.88889 0H31.1111V17.75C31.1111 20.2045 33.0972 22.1875 35.5556 22.1875H53.3333V27.5402C43.0694 30.4385 35.5556 39.8543 35.5556 51.0312C35.5556 59.2268 39.5972 66.4654 45.7917 70.9029C45.3472 70.9723 44.9028 71 44.4444 71H8.88889C3.98611 71 0 67.0201 0 62.125V8.875ZM53.3333 17.75H35.5556V0L53.3333 17.75ZM40 51.0312C40 45.7352 42.1071 40.6561 45.8579 36.9112C49.6086 33.1663 54.6957 31.0625 60 31.0625C65.3043 31.0625 70.3914 33.1663 74.1421 36.9112C77.8929 40.6561 80 45.7352 80 51.0312C80 56.3273 77.8929 61.4064 74.1421 65.1513C70.3914 68.8962 65.3043 71 60 71C54.6957 71 49.6086 68.8962 45.8579 65.1513C42.1071 61.4064 40 56.3273 40 51.0312ZM69.3472 45.0268C68.4861 44.167 67.0695 44.167 66.2083 45.0268L57.7778 53.4441L53.7917 49.4643C52.9306 48.6045 51.5139 48.6045 50.6528 49.4643C49.7917 50.324 49.7917 51.7385 50.6528 52.5982L56.2083 58.1451C57.0695 59.0049 58.4861 59.0049 59.3472 58.1451L69.3472 48.1607C70.2083 47.301 70.2083 45.8865 69.3472 45.0268Z" fill="white"/>
</svg>
